<?xml version="1.0" encoding="UTF-8" standalone="no"?>
<!-- Created with Inkscape (http://www.inkscape.org/) -->

<svg
   version="1.1"
   id="svg8016"
   width="684.3175"
   height="535.6825"
   viewBox="0 0 684.31753 535.68248"
   sodipodi:docname="bf.svg"
   inkscape:version="1.1 (c4e8f9e, 2021-05-24)"
   xmlns:inkscape="http://www.inkscape.org/namespaces/inkscape"
   xmlns:sodipodi="http://sodipodi.sourceforge.net/DTD/sodipodi-0.dtd"
   xmlns="http://www.w3.org/2000/svg"
   xmlns:svg="http://www.w3.org/2000/svg">
  <defs
     id="defs8020" />
  <sodipodi:namedview
     id="namedview8018"
     pagecolor="#ffffff"
     bordercolor="#666666"
     borderopacity="1.0"
     inkscape:pageshadow="2"
     inkscape:pageopacity="0.0"
     inkscape:pagecheckerboard="0"
     showgrid="false"
     inkscape:zoom="1.5699598"
     inkscape:cx="297.45984"
     inkscape:cy="233.44546"
     inkscape:window-width="1725"
     inkscape:window-height="1067"
     inkscape:window-x="67"
     inkscape:window-y="25"
     inkscape:window-maximized="1"
     inkscape:current-layer="g8022" />
  <g
     inkscape:groupmode="layer"
     inkscape:label="Image"
     id="g8022"
     transform="translate(3.3446236e-5,78.383717)">
    <path
       id="path8134"
       style="fill:#00eeee;fill-opacity:1;stroke-width:0.353786"
       d="M 403.44141,0.00195313 C 396.87419,0.24166352 390.68859,2.977474 385.14258,6.3300781 378.3701,10.487859 372.38181,15.916512 367.50977,22.189453 c -3.98003,5.125787 -6.66908,11.083193 -9.14649,17.039063 -4.2863,10.550862 -7.46386,21.510223 -10.35937,32.511718 -1.40672,5.99064 -2.95603,11.952649 -4.04883,18.011719 -0.32566,1.760788 -0.63747,3.524339 -0.92969,5.291016 C 340.33491,80.46344 336.87824,66.01414 332.4707,51.855469 328.77562,39.691829 323.21699,27.897502 314.82227,18.25 310.30298,13.085328 305.07764,8.4269856 299.02148,5.140625 293.37038,2.1083905 287.01821,0.52437525 280.65039,0.01171875 c -3.95211,-0.1186052 -8.00746,1.38421265 -10.76367,4.24804685 -1.60161,1.7627296 -2.57372,4.0151943 -3.25195,6.2734374 -1.1688,4.029458 -0.56738,8.555255 1.79492,12.046875 2.91912,4.480058 7.963,7.16698 13.125,8.134766 4.26078,0.918307 8.66948,0.619414 12.93945,1.451172 1.48949,0.340504 2.2806,1.77985 3.23047,2.839843 3.45736,4.638667 6.09282,9.829366 8.49219,15.076172 0.25923,0.581046 0.64385,1.464819 0.95117,2.16211 5.18361,11.967155 8.58359,24.614058 11.42383,37.314453 1.6585,7.596921 3.00319,15.258106 4.16797,22.945316 0.26017,1.86735 0.57834,3.92996 0.82421,5.79101 0.19009,1.46378 0.38802,2.92615 0.57227,4.39063 -15.21593,-18.6957 -32.5587,-35.648637 -51.5,-50.550784 -16.27466,-12.759551 -33.70197,-24.129338 -52.29687,-33.21875 -15.70759,-7.589679 -32.14316,-13.623189 -48.91407,-18.398438 -10.6111,-2.977746 -21.41469,-5.347011 -32.3789,-6.554687 -5.10343,-0.575772 -10.21613,-1.116748 -15.34375,-1.417969 -9.71415,-0.427903 -19.44217,-0.414655 -29.164066,-0.447266 -16.413732,-0.02613 -32.844513,0.791655 -49.128906,2.892578 -9.153076,1.258326 -18.321774,2.887852 -27.050782,5.990235 -5.737711,2.08843 -11.3863831,5.092479 -15.3144529,9.884765 -3.2476097,3.841118 -3.79125695,9.407805 -2.20898435,14.070313 0.94447985,2.99389 2.85591445,5.552599 5.00781245,7.791015 3.6372256,3.911246 8.0814758,6.931264 12.5468748,9.806641 1.394527,0.918754 2.922985,1.993585 4.154297,2.925781 1.748205,1.381087 3.592756,2.715935 4.966797,4.490235 1.320338,5.070684 4.896017,9.152483 8.646484,12.642578 3.775273,3.510526 8.233879,6.433431 11.103516,10.806641 0.584743,0.956186 0.397643,2.161665 0.849609,3.18164 0.880962,2.749785 2.299906,5.351282 4.175782,7.548832 1.868357,2.13105 4.297257,3.65348 6.355468,5.57226 0.292877,3.10159 -0.757081,6.24211 -0.228515,9.34961 0.436162,2.91063 2.358414,5.54337 5.05664,6.75 1.928999,0.94556 4.091021,1.15047 6.185547,1.46094 -0.88365,3.32243 -2.923094,6.2918 -3.259765,9.77148 -0.460905,3.36405 1.030024,6.9135 3.833984,8.85547 2.332208,1.79954 5.331393,2.35632 7.759766,3.97656 1.730817,1.45596 2.015327,4.0797 1.080078,6.06055 -1.112286,2.87383 -2.670619,5.75933 -2.4375,8.94141 0.202866,3.59897 2.478655,6.81481 5.470703,8.70703 2.47325,1.74055 5.522611,2.60137 7.728515,4.7207 1.446873,1.78154 1.145541,4.22472 1.494141,6.35547 0.308819,3.33014 1.405642,6.70172 3.767578,9.15234 2.729657,2.95466 6.618089,4.3896 10.328129,5.67774 2.20633,0.7698 4.46957,1.40555 6.5957,2.38476 -0.0263,3.32958 0.006,6.88954 1.8418,9.80469 1.72493,2.87972 4.86746,4.55673 8.05273,5.30664 4.63355,1.15012 9.44925,1.18495 14.10156,2.23047 0.0369,2.80971 0.82266,5.75517 2.91016,7.75 2.168,2.21112 5.26794,3.06717 8.24805,3.4707 2.31792,0.33744 4.6598,0.43704 6.99609,0.56446 -3.76919,3.74426 -7.71836,7.31368 -11.32812,11.21484 -3.39475,3.63187 -6.15449,8.01157 -7.14063,12.93945 -1.10932,5.15904 -0.74153,10.49431 -1.74805,15.66993 -0.40967,2.64229 -1.10765,5.37856 -2.95508,7.4082 -1.89814,2.2878 -4.03783,4.80017 -4.0996,7.93359 -0.12817,2.64011 1.24718,5.22177 3.42773,6.68946 1.84632,1.36861 4.14527,1.83093 6.19336,2.7832 1.14109,0.78578 1.28691,2.35661 1.37109,3.63086 0.1027,3.17945 -0.007,6.45293 -1.25976,9.42773 -1.54342,3.88291 -3.71105,7.69515 -3.78906,11.98047 -0.0941,2.98922 1.04975,5.98429 3.17773,8.09766 2.50186,2.68636 5.80524,4.42879 9.12891,5.88476 0.31659,1.70484 0.44754,3.43812 0.56836,5.16602 0.0162,0.41725 0.0664,1.24323 0.0859,1.70117 0.18345,3.50455 0.13139,7.0464 0.76563,10.50781 0.52052,2.6057 2.01112,4.96698 4.12695,6.57227 3.53595,2.87464 8.13104,3.71652 12.44141,4.75586 2.81824,0.67751 5.50862,1.36723 8.22656,2.40234 2.2849,0.842 4.39895,2.2607 5.72852,4.33789 2.35296,3.35564 4.3089,7.12429 7.62695,9.66602 0.94593,0.73804 1.96415,1.39441 3.07617,1.85351 -0.81522,3.06699 -2.07882,6.15436 -3.36328,8.94532 -2.10432,4.58971 -4.73564,8.92338 -7.77734,12.95117 -4.45327,6.08128 -9.1821,12.12284 -11.94532,19.21094 -2.44544,6.12459 -3.91141,12.8978 -2.6289,19.46875 0.96412,5.21003 3.91999,10.09774 8.37304,13.04101 1.27309,0.8456 9.51989,1.52202 10.94662,2.06641 v -22.90821 h 9.82677 v 22.08008 c 3.49503,-1.82438 9.44492,-4.60809 11.57036,-7.93164 3.21322,-4.91092 5.07692,-10.57107 6.40039,-16.25 2.91203,-12.82181 2.58523,-26.08954 4.88868,-39.0039 0.50347,-2.5181 1.00169,-5.09875 2.25,-7.37305 3.27544,0.62007 6.70081,0.73766 9.92578,-0.21875 3.61117,-0.94019 7.08197,-2.41276 10.23437,-4.41211 3.63316,-2.03733 8.04685,-2.75049 12,-3.0957 1.08669,-0.0824 1.97134,-0.13624 3.08399,-0.17969 5.66138,-0.13151 11.43744,0.007 16.91992,-1.63672 6.90878,-1.89024 13.22006,-5.80213 18.04492,-11.08984 6.35624,-6.84065 10.60479,-15.29978 14.26172,-23.8086 4.452,-10.56419 7.84042,-21.53478 10.9043,-32.57031 2.5315,-9.12577 5.03908,-18.36057 7.85546,-27.3418 2.33408,-7.36572 4.61853,-14.7564 7.38282,-21.97461 0.68434,-1.69339 1.40415,-3.39467 2.15429,-5.125 1.93472,4.25941 4.97259,8.26805 9.27539,10.32422 3.36612,1.59169 7.53539,1.20087 10.5586,-0.9707 3.88038,-2.57633 6.09749,-6.89301 7.6582,-11.14844 0.20391,-1.02908 0.42151,-0.58374 0.64063,0.17188 2.29414,6.02256 4.33756,12.13756 6.33593,18.26367 5.07747,16.01912 9.02667,32.34938 13.84375,48.44336 3.64617,12.06045 7.91875,24.03089 14.16993,35.01367 3.85538,6.6518 8.59188,13.01153 14.9414,17.47461 4.66397,3.27651 10.20973,5.3335 15.91992,5.61914 5.36358,0.35308 10.72135,-0.29612 16.08204,-0.3457 3.41408,0.20873 6.61933,1.63075 9.62695,3.16601 4.10419,2.29269 8.33212,4.49948 12.95117,5.54492 2.68178,0.62692 5.48752,0.87079 8.21094,0.36329 2.24026,3.17693 3.20811,7.04254 3.92773,10.80859 0.60538,3.34872 0.89338,6.94308 1.10938,10.16992 0.54985,9.4005 0.53408,18.95612 3.08007,28.09766 1.74863,6.54416 4.63555,13.05625 9.68555,17.72656 1.4537,1.31499 6.99526,2.43944 8.73534,3.35156 v -21.49609 h 9.82677 v 21.54101 c 2.77447,-1.40734 11.16804,-3.41706 13.13516,-5.81054 3.96922,-4.88596 5.74797,-11.28953 5.57031,-17.52735 -0.0516,-5.63901 -1.67814,-11.24419 -4.66797,-16.02734 -3.08265,-5.07323 -6.71658,-9.77852 -10.16211,-14.60547 -2.84038,-3.95605 -5.76806,-7.86115 -8.3457,-11.99609 -1.35678,-2.28128 -2.56853,-4.666 -3.42188,-7.1836 3.90637,-1.18471 6.8035,-4.42069 8.67383,-7.92773 1.66219,-2.82722 2.75863,-5.97509 4.6543,-8.66211 1.17815,-1.40914 3.09981,-1.73917 4.76172,-2.27539 5.37928,-1.43869 10.99673,-1.99995 16.21484,-4.01367 3.07938,-1.23647 5.75377,-3.62604 6.94141,-6.76953 1.49007,-3.84515 1.3204,-8.07076 1.60937,-12.08789 0.13593,-1.96898 0.20356,-4.31216 1.32617,-6.13868 1.05023,-2.17004 3.2614,-3.34663 4.97461,-4.91992 2.40937,-2.05251 4.78361,-4.57901 5.24024,-7.8457 0.46397,-3.31613 -0.0781,-6.76425 -1.625,-9.74219 -1.46138,-3.09581 -3.14689,-6.26406 -3.13672,-9.78125 0.0157,-1.65319 -0.14242,-3.3351 0.13476,-4.96875 0.41076,-1.06365 1.14811,-2.03609 2.26758,-2.4082 2.83687,-1.09771 5.80226,-2.3512 7.75977,-4.78711 1.997,-2.31621 2.1152,-5.82472 0.67383,-8.45313 -1.36072,-2.88764 -3.994,-4.94392 -5.25,-7.89648 -1.64322,-3.26006 -2.15246,-6.92168 -2.42578,-10.51953 -0.38844,-4.6344 -0.60026,-9.41667 -2.54493,-13.72266 -2.42652,-5.59152 -7.00338,-9.79699 -11.25781,-14.00195 -1.86195,-1.81625 -3.73104,-3.62565 -5.58008,-5.45508 3.5447,-0.17958 7.13136,-0.27807 10.60157,-1.08008 3.37085,-0.84114 6.54367,-3.20499 7.58007,-6.625 0.45922,-1.39016 0.49099,-2.86469 0.48243,-4.31445 5.53368,-0.96239 11.30016,-1.07336 16.65039,-3.05469 2.99647,-1.14344 5.64399,-3.63018 6.26367,-6.86914 0.29873,-1.49012 0.21935,-3.03571 -0.0898,-4.51758 1.98849,-3.13128 5.3431,-5.06713 8.67969,-6.47656 2.07594,-0.72114 4.34076,-0.56115 6.44531,-1.1914 2.91987,-0.68248 5.46766,-2.77863 6.58008,-5.58008 1.35296,-3.4258 0.73889,-7.18246 0.43946,-10.74219 -0.0541,-0.72052 -0.0997,-1.44311 -0.0957,-2.16602 2.63576,-2.06788 5.95339,-3.07424 8.50391,-5.27539 2.63272,-2.11784 4.39816,-5.22987 4.88476,-8.57226 0.72752,-4.12654 -0.002,-8.30632 0.0606,-12.45508 0.63453,-1.90748 2.41686,-3.0894 3.89453,-4.32031 2.86699,-2.20002 5.96261,-4.59544 7.14258,-8.16407 1.09613,-3.04211 0.2648,-6.41376 -1.32812,-9.11914 -0.23898,-0.45723 -0.59448,-0.92867 -0.79297,-1.36132 3.60203,-2.84414 7.76153,-5.25869 10.26953,-9.22657 1.67764,-2.75476 1.92241,-6.32242 0.52344,-9.24414 -0.2453,-0.56014 -0.53834,-1.09802 -0.84766,-1.625 4.46572,-3.06274 8.47196,-7.26479 10.04687,-12.558591 0.46008,-1.397721 0.44592,-3.058804 1.62696,-4.107422 2.06742,-2.113723 4.77069,-3.429671 7.11328,-5.199219 4.71791,-3.349646 8.37457,-8.115825 10.49219,-13.492187 1.53026,-3.089194 4.22208,-5.360005 6.66992,-7.703125 1.35604,-1.215538 2.73383,-2.364131 4.10937,-3.449219 4.05752,-3.096396 8.17891,-6.206292 11.45117,-10.164063 2.97853,-3.513497 5.31032,-7.777778 5.66797,-12.441406 0.66442,-6.855213 -3.37205,-13.93702 -9.72851,-16.671875 -3.93991,-1.658682 -8.13909,-2.565999 -12.26758,-3.619141 -10.7016,-2.560801 -21.53883,-4.503787 -32.42188,-6.109374 -7.65206,-1.282681 -15.37794,-2.082024 -23.11328,-2.648438 -13.27009,-0.879433 -26.59057,-0.116617 -39.80664,1.183594 -9.33426,0.992728 -18.66868,2.083019 -27.91601,3.714844 -7.58444,1.44742 -15.16599,2.94529 -22.63477,4.919921 -9.00462,2.257215 -17.86827,5.061704 -26.59375,8.22461 -24.66305,9.03117 -47.98111,21.685867 -69.05078,37.361328 -20.74267,15.385533 -39.36159,33.511755 -56.03711,53.201173 -1.00542,1.16419 -1.98655,2.34776 -2.97851,3.52344 0.48092,-4.03705 1.04587,-7.95068 1.72656,-11.98047 1.68801,-10.09337 3.80648,-20.297994 6.33789,-30.287112 2.09835,-8.00352 4.34983,-15.981891 7.21875,-23.748047 1.08141,-2.956203 2.27969,-6.094403 3.60742,-9.044922 0.61638,-1.379654 1.1809,-2.592905 1.86914,-3.964843 2.30775,-4.481678 4.73383,-8.997184 8.15039,-12.746094 0.38526,-0.420175 0.83198,-0.87752 1.46289,-0.697266 2.39152,0.224245 4.73075,0.923474 7.15039,0.894532 4.69698,0.103287 9.60536,-0.9337 13.41992,-3.792969 2.38338,-1.847127 4.39467,-4.250532 5.60547,-7.021485 1.0921,-2.914776 1.08993,-6.141302 0.59961,-9.179687 -0.74498,-4.4210233 -3.87758,-8.2738832 -7.96093,-10.0703126 -2.31914,-1.07231321 -4.90488,-1.42980227 -7.44141,-1.39453127 z"
       transform="translate(0,-4.5196024e-5)"
       sodipodi:nodetypes="scccccccccccccccccccccccccccccccccccccccccccccccccccccccccccccccccccccccccccccccccccccccccccccccccccccccccccccccccccccccccccccccccccccccccccccccccccccccccccccccccccccccccccccccccccccccccccccccccccccccccccccss" />
    <path
       id="path131"
       style="fill:#000000;stroke-width:0.547744"
       d="m 583.28526,52.822611 c -3.14834,0.01512 -6.30311,0.22303 -9.41192,0.730805 -0.86029,0.140258 -1.65396,0.290041 -2.48031,0.472441 -1.2443,0.266834 -2.60402,0.632926 -3.80167,1.018698 -0.74933,0.241021 -1.57478,0.532573 -2.3548,0.848919 -1.90129,0.81482 -3.84502,1.653032 -5.42569,3.01919 -0.90788,0.714485 -1.50267,1.815313 -1.48377,2.982278 -0.0514,1.387396 0.77567,2.637911 1.8381,3.462105 2.14904,1.612288 4.76756,2.432985 7.35234,3.041333 2.0154,0.486633 4.12396,0.818131 6.14173,1.070373 4.9243,0.600971 9.89544,0.755198 14.85236,0.73819 0.80492,-0.0087 1.70989,-0.03136 2.44338,-0.06644 0.67038,-0.03742 1.22963,-0.06074 1.8824,-0.11811 2.43136,-0.285769 4.86065,-0.796081 7.11612,-1.771651 1.50384,-0.662245 3.09415,-1.56512 3.77215,-3.144681 0.57445,-1.472597 -0.0227,-3.081737 -0.75295,-4.384841 -1.38115,-2.561482 -3.69226,-4.546957 -6.34102,-5.713575 -4.19025,-1.821707 -8.82995,-2.166139 -13.34645,-2.185037 z m -481.41685,0.103344 c -2.407997,0.0094 -4.738815,0.09146 -7.12352,0.324804 -2.286185,0.261808 -4.727055,0.552298 -6.931587,1.402559 -0.826453,0.268384 -1.587109,0.766045 -2.044782,1.520665 -1.082925,1.838092 -1.43377,4.032741 -1.328737,6.141726 0.100686,1.408349 0.315023,2.841684 0.871063,4.148621 0.377876,0.942572 1.228757,1.578953 2.155507,1.926669 1.68436,0.637507 3.494386,0.831888 5.270664,1.048228 3.249237,0.340006 6.492715,0.600854 9.707182,0.745572 1.60482,0.01512 3.21118,-0.120885 4.81298,-0.221458 0.47353,-0.0325 1.04149,-0.08447 1.49853,-0.11811 2.72573,-0.2465 5.45527,-0.59343 8.12745,-1.195864 0.96358,-0.21547 2.00449,-0.48396 2.99704,-0.797245 3.11604,-0.974301 6.21863,-2.437324 8.37106,-4.968006 0.32473,-0.449314 0.83501,-0.896118 0.78248,-1.498521 -0.24651,-1.52412 -1.47163,-2.658895 -2.69439,-3.484249 -2.63613,-1.69261 -5.65854,-2.65442 -8.68848,-3.366138 -5.17863,-1.17863 -10.51115,-1.596025 -15.78246,-1.609253 z m 73.29471,3.646651 c -4.76014,0.05786 -9.63538,0.97944 -13.74506,3.484248 -2.92557,1.766107 -5.4902,4.125158 -7.53691,6.857768 -1.95734,2.852653 -2.59531,6.356555 -2.85678,9.744085 -0.0321,0.4442 -0.0787,1.071904 -0.096,1.52805 -0.10303,3.276644 -0.025,6.570854 0.45768,9.817903 0.59269,3.957933 1.95234,8.009291 4.62844,11.09497 2.80141,3.26823 6.69048,5.36469 10.65205,6.90206 5.01262,1.88946 10.18778,3.30778 15.37646,4.62105 4.26325,1.07216 8.46839,1.97743 12.78542,2.86418 6.87481,1.3937 13.75201,2.77769 20.59546,4.3184 21.07227,4.68725 41.96117,10.42486 62.09639,18.26277 6.80073,2.63989 13.53474,5.45697 20.12301,8.59252 6.87841,3.29765 13.5354,7.05885 19.90894,11.24998 2.50117,1.60169 5.00031,3.20418 7.52952,4.76132 -4.6404,-7.05433 -9.67248,-13.84293 -14.9114,-20.46258 -3.49277,-4.42665 -7.13127,-8.73495 -10.8366,-12.98473 -3.58457,-4.08569 -7.28699,-8.15624 -11.08759,-12.07676 -9.20785,-9.52715 -19.23628,-18.40658 -30.03688,-26.154007 -6.18311,-4.45833 -12.57007,-8.584183 -19.25195,-12.23916 -8.52104,-4.681881 -17.42068,-8.672185 -26.5674,-11.966033 -6.0714,-2.177372 -12.34488,-4.095703 -18.64663,-5.647137 -5.90343,-1.43162 -11.93379,-2.540612 -18.02656,-2.568897 -0.18236,0.0011 -0.37129,-0.0011 -0.55364,0 z m 331.94112,0.730804 c -1.55751,0.03288 -3.19457,0.122559 -4.69489,0.250987 -2.31466,0.205039 -4.63585,0.505428 -6.89468,0.893208 -9.60283,1.635059 -18.99377,4.680063 -28.02162,8.378437 -15.03536,6.207728 -29.17278,14.472382 -42.27605,24.087083 -4.07766,3.000001 -8.0821,6.15356 -11.92172,9.411895 -6.2065,5.24952 -12.08257,10.87169 -17.65748,16.7864 -7.64594,8.08939 -14.89718,16.55404 -21.82084,25.26818 -3.24961,4.09681 -6.427,8.31135 -9.4119,12.57135 -1.67366,2.40107 -3.32145,4.81507 -4.82037,7.33021 3.44166,-2.9892 6.97196,-5.89162 10.79969,-8.37844 7.96225,-5.23248 16.68252,-9.18339 25.52657,-12.66731 12.3711,-4.83132 25.05019,-8.82734 37.78783,-12.56396 22.26264,-6.50677 44.77193,-12.09867 67.3154,-17.53935 4.82237,-1.20681 9.69463,-2.2758 14.4168,-3.84596 1.36709,-0.45937 2.80055,-1.0156 4.06004,-1.58711 0.60903,-0.27832 1.15725,-0.54151 1.77165,-0.86368 4.04719,-2.08398 7.61846,-5.169729 10.03199,-9.050185 1.6628,-2.678163 2.92581,-5.615371 3.66879,-8.681094 0.43339,-1.785443 0.63155,-3.727476 0.69392,-5.49212 0.0839,-2.449766 0.0598,-4.913782 -0.27315,-7.344972 -0.50842,-2.880507 -1.68982,-5.630281 -3.35138,-8.031488 -2.26726,-3.141706 -5.63327,-5.356371 -9.24211,-6.673222 -2.18766,-0.817972 -4.46214,-1.367499 -6.7692,-1.719978 -0.38952,-0.06025 -0.94242,-0.136335 -1.39517,-0.191932 -1.07112,-0.125631 -2.19761,-0.231299 -3.21849,-0.280508 -0.49799,-0.03099 -0.98657,-0.04473 -1.46899,-0.05906 -0.94507,-0.02608 -1.88938,-0.02855 -2.83464,-0.0074 z m -396.1635,35.905477 c -0.31888,0.0053 -0.63314,0.01612 -0.95226,0.03691 -0.55407,0.03099 -1.30669,0.121149 -1.93405,0.199309 -4.97581,0.645029 -9.989157,1.854095 -14.357765,4.554625 -2.564993,1.558694 -4.982822,3.399549 -7.212099,5.455209 -0.346469,0.31204 0.05625,0.79882 0.125492,1.17372 0.843151,2.0146 2.226846,3.72299 3.698321,5.2559 1.642021,1.65304 3.658288,3.03656 5.957179,3.30708 2.313662,0.42787 4.621752,0.82928 6.990642,0.97441 0.58783,0.002 0.99774,-0.0197 1.59449,-0.0812 4.07878,-0.49008 8.12622,-1.57385 11.78886,-3.57283 3.35077,-1.83505 6.4882,-4.33006 8.62942,-7.6624 0.91922,-1.48012 1.69794,-3.087493 2.1186,-4.805601 0.0482,-0.843151 -0.63684,-1.475892 -1.17371,-1.993105 -1.4551,-1.139319 -3.31603,-1.372587 -5.04183,-1.742126 -1.18182,-0.210331 -2.37046,-0.378376 -3.55807,-0.546259 -2.21345,-0.278777 -4.44112,-0.590395 -6.67322,-0.553642 z m 461.01332,0.125495 c -2.06827,0.04029 -4.13438,0.317102 -6.18602,0.561021 -1.25801,0.167887 -2.51285,0.335924 -3.76475,0.546259 -1.82811,0.369524 -3.79573,0.602807 -5.3371,1.742126 -0.5687,0.517213 -1.29857,1.142573 -1.24754,1.985724 0.4456,1.718107 1.27037,3.332858 2.24409,4.812988 2.26817,3.33234 5.58935,5.81996 9.13877,7.65501 3.8798,1.99899 8.16956,3.09013 12.49016,3.58021 0.63212,0.0615 1.06775,0.0829 1.69043,0.0812 2.50934,-0.14513 4.95321,-0.54654 7.40405,-0.97441 2.43518,-0.27053 4.56475,-1.66142 6.30413,-3.31446 1.55871,-1.53291 3.02664,-3.24129 3.91978,-5.2559 0.0733,-0.37489 0.50041,-0.8543 0.13285,-1.16634 -2.36145,-2.05566 -4.92317,-3.896511 -7.64023,-5.455205 -4.62761,-2.70053 -9.93588,-3.916978 -15.20669,-4.562003 -0.66455,-0.07816 -1.45787,-0.160939 -2.0448,-0.191931 -0.33789,-0.02079 -0.67351,-0.03904 -1.01128,-0.04429 -0.29556,-0.0045 -0.59036,-0.0057 -0.88585,0 z M 158.75319,126.71525 c -1.86904,-0.006 -3.7373,0.0478 -5.60284,0.1624 -0.4088,0.0234 -0.96662,0.0644 -1.36565,0.0886 -4.53594,0.35241 -9.04192,1.01433 -13.49408,1.94882 -1.03537,0.21657 -2.13507,0.469 -3.12254,0.70866 -2.05361,0.50227 -4.08789,1.05645 -6.10482,1.69045 -2.04252,0.68287 -4.13639,1.28052 -6.05314,2.281 -1.49571,0.79801 -3.02573,1.96151 -3.43258,3.69833 -0.20904,1.66147 -0.22699,3.33929 -0.25836,5.0123 0.0136,1.84792 -0.0903,3.74651 0.45029,5.53641 0.21135,0.88519 1.03405,1.42458 1.85286,1.68307 2.07834,0.66187 4.27767,0.81828 6.44438,0.93011 0.62016,0.0238 1.33622,0.0415 2.02263,0.0517 4.71811,0.0791 9.38411,-0.78014 13.97391,-1.78642 5.25139,-1.1686 10.50848,-2.71673 15.62006,-4.50295 3.079,-1.08497 6.18135,-2.30385 9.07234,-3.65403 3.00493,-1.40622 6.0268,-3.12203 8.54083,-5.37401 0.43634,-0.45164 1.01291,-0.83876 1.24754,-1.43947 -0.12669,-0.61478 -0.59065,-1.11319 -0.9375,-1.60925 -0.82365,-1.25189 -1.98809,-2.24632 -3.32923,-2.90846 -2.566,-1.25532 -5.42922,-1.71596 -8.23818,-2.06692 -0.47899,-0.0619 -0.99278,-0.105 -1.52067,-0.16241 -0.93208,-0.0841 -2.03277,-0.17121 -3.03395,-0.21407 -0.86327,-0.0454 -1.81305,-0.061 -2.7313,-0.0738 z m 364.08184,0.19931 c -0.49773,0.008 -1.09353,0.0231 -1.54284,0.0295 -1.26255,0.0348 -2.52483,0.10173 -3.77952,0.25098 -1.57538,0.13002 -3.12869,0.67306 -4.36267,1.67569 -2.33015,1.94825 -4.39918,4.1892 -6.39272,6.47391 1.08359,0.69628 2.24012,1.27261 3.40304,1.82333 5.83971,2.65737 11.89299,4.83034 18.02655,6.70274 5.20407,1.56331 10.50682,2.95082 15.81939,3.94931 2.60262,0.48487 5.26185,0.86575 7.92816,1.09252 0.48279,0.047 1.07451,0.0837 1.62398,0.12549 2.0951,0.12306 4.187,0.13621 6.25247,0.0222 1.69595,-0.13206 3.38539,-0.19348 5.04921,-0.62746 0.57506,-0.0845 1.06092,-0.46359 1.29181,-0.99656 0.50003,-1.139 0.67358,-2.3884 0.86369,-3.60974 0.21544,-1.7979 0.45173,-3.62087 0.30267,-5.43306 -0.093,-1.29619 -0.87746,-2.42656 -1.88976,-3.19636 -1.79433,-1.35163 -3.94896,-2.10481 -6.06054,-2.80511 -1.55074,-0.4934 -3.32357,-0.97788 -4.9237,-1.35827 -5.18305,-1.23039 -10.40329,-2.13248 -15.67176,-2.84202 -5.31231,-0.68803 -10.58626,-1.24117 -15.93746,-1.27707 z m -306.87225,11.05806 c -0.64989,0.007 -1.29982,0.0317 -1.94881,0.0664 -2.92752,0.22446 -5.86957,0.63059 -8.65895,1.57972 -2.30701,0.75015 -4.52939,2.12925 -5.76525,4.27411 -0.53833,0.76211 -0.69165,1.70646 -0.70866,2.62057 0.004,1.31754 -0.10934,2.65176 0.11811,3.95669 0.30508,1.08282 0.89226,2.07241 1.51329,3.00442 1.38749,2.10901 3.68502,3.40455 6.03837,4.16339 2.2757,0.7992 4.69086,1.0598 7.08661,1.17371 0.52996,0.028 1.15276,0.0548 1.62401,0.0812 2.72768,0.10658 5.45156,0.15441 8.19389,0.25098 1.58044,0.10258 3.1995,0.0238 4.73917,0.4503 1.3353,0.29234 2.21467,1.82951 1.75689,3.12253 -0.45152,1.23037 -1.70218,1.86624 -2.81988,2.38435 -2.88981,1.28757 -5.80313,2.53428 -8.65894,3.89763 -2.0152,1.00464 -4.12693,1.86458 -5.94242,3.2185 -1.07737,0.88166 -2.08728,1.88437 -2.84941,3.0561 -0.77306,1.03973 -0.65346,2.45781 -0.15502,3.5876 0.94116,1.9881 2.56634,3.61952 4.45128,4.73178 1.04951,0.68858 2.32811,0.82435 3.5433,0.84892 1.66641,0.072 3.5249,0.0461 5.21161,-0.007 2.15183,-0.0653 4.31298,-0.23603 6.41485,-0.46506 4.50763,-0.55293 9.01838,-1.13159 13.50147,-1.86023 5.25472,-0.93716 10.53273,-1.70424 15.81937,-2.43602 9.83785,-1.35405 19.69564,-2.64701 29.60873,-3.30709 9.81859,-0.62434 19.69504,-0.67134 29.50539,-0.98179 -2.50339,-2.04106 -5.00028,-4.10453 -7.66978,-5.92765 -4.19894,-2.7468 -8.61404,-5.13907 -13.08808,-7.40403 -8.82506,-4.42343 -17.92719,-8.35331 -27.13579,-11.84054 -6.14637,-2.31561 -12.36832,-4.45651 -18.65402,-6.2746 -5.21752,-1.49078 -10.6241,-2.80127 -15.93749,-3.81643 -2.35492,-0.45055 -4.73768,-0.85298 -7.13828,-1.18848 -0.7879,-0.11664 -1.65762,-0.22003 -2.39911,-0.31743 -3.18508,-0.38103 -6.38662,-0.65129 -9.59645,-0.64222 z m 252.78519,0.25837 c -2.70119,-0.006 -5.39973,0.16928 -8.08316,0.47244 -3.16361,0.31717 -6.35096,0.77214 -9.44144,1.4247 -3.30708,0.66595 -6.60528,1.37575 -9.86217,2.25885 -7.17849,1.93598 -14.26638,4.21764 -21.26723,6.71752 -2.08521,0.75101 -4.22585,1.55593 -6.28199,2.36958 -3.1895,1.25666 -6.31437,2.66284 -9.46355,4.01575 -6.10208,2.67149 -12.11246,5.61034 -18.02655,8.62204 -4.42911,2.27941 -8.86682,4.56845 -13.16191,7.09398 -0.29896,0.18195 -0.6928,0.41487 -0.93012,0.56103 -1.42194,0.87895 -2.79025,1.85434 -4.04527,2.96013 0.96645,0.18452 1.94472,0.28774 2.92323,0.38386 3.3074,0.3174 6.67089,0.40495 9.96556,0.52411 5.0683,0.13467 10.13664,0.28815 15.19928,0.56841 10.69594,0.5615 21.34675,1.77156 31.9414,3.32185 9.78431,1.40976 19.51141,3.21381 29.32823,4.2741 1.84785,0.23517 3.71372,0.24736 5.57333,0.22884 2.17148,1.2e-4 4.28114,-0.0196 6.43698,-0.14025 1.71772,-0.0306 3.48328,-0.40281 4.90159,-1.41732 0.83149,-0.62132 1.68,-1.40128 1.9045,-2.45817 0.2812,-2.19426 -0.11301,-4.52925 -1.32136,-6.40747 -1.7331,-2.65703 -4.56532,-4.33954 -7.43353,-5.53642 -1.96233,-0.87537 -4.06764,-1.25126 -6.00147,-2.22194 -1.10861,-0.52389 -2.15731,-1.57939 -2.09646,-2.88632 0.0189,-1.25931 1.06408,-2.23406 2.19242,-2.62057 2.38931,-0.8169 4.94438,-0.91455 7.44094,-1.09989 5.30369,-0.31635 10.6609,-1.56739 15.22143,-4.37746 0.53208,-0.32969 1.19894,-0.76922 1.7495,-1.18849 1.52247,-1.21767 2.91579,-2.70137 3.72049,-4.49556 -0.034,-0.49051 -0.34167,-0.92031 -0.54629,-1.35827 -1.0337,-1.77363 -2.46096,-3.28728 -3.92715,-4.70964 -1.2607,-1.22492 -2.75036,-2.20684 -4.38482,-2.85679 -3.85987,-1.598 -8.08538,-1.97327 -12.22441,-2.02263 z m -296.10945,22.73619 c -1.07176,8.6e-4 -2.1467,0.0272 -3.21851,0.0591 -11.62604,0.41616 -23.04223,5.67855 -31.09987,14.03296 -3.97602,4.14548 -6.8608,11.06937 -2.93798,16.1737 3.20015,4.52519 9.36569,5.94825 14.51277,4.28888 10.72245,-2.92313 20.74031,-8.28774 29.60136,-14.94093 4.16717,-3.10186 8.00487,-8.18057 6.34103,-13.64172 -1.69715,-3.91326 -5.85194,-5.92164 -9.98769,-5.88336 -1.07081,-0.0646 -2.13937,-0.0894 -3.21111,-0.0886 z m 340.88055,0.0148 c -4.61907,-0.0757 -9.07811,1.49993 -12.64515,4.42913 -3.04373,1.02512 -2.80917,2.92052 -1.07777,5.2116 3.25644,8.09206 10.96326,13.00586 18.04874,17.4434 7.03962,3.79433 14.46306,8.17043 22.69925,8.08316 6.57161,-0.0934 12.47065,-6.23119 11.5822,-12.91092 -0.54471,-6.93094 -6.09456,-12.434 -11.84794,-15.73079 -8.22727,-4.13884 -17.53094,-6.54848 -26.75933,-6.52558 z m -162.09874,28.27261 c 0.23044,0.10919 0.45607,0.22299 0.68651,0.33218 8.56289,4.07726 16.96571,8.53226 24.86957,13.78936 16.40532,10.74989 31.64247,23.17585 46.26964,36.21551 5.50518,4.86942 10.82977,9.94055 16.34349,14.80068 0.56236,0.48282 1.2178,1.04888 1.81595,1.56496 0.58073,0.50131 1.23715,1.04412 1.81591,1.52805 3.266,2.65569 6.68874,5.26203 10.68162,6.71751 2.62661,0.97003 5.46662,1.18538 8.24556,1.10728 2.87954,-0.12234 5.78021,-0.72414 8.36367,-2.03002 2.83339,-1.47997 5.11528,-3.9033 6.6732,-6.67322 1.4838,-2.60289 2.16363,-5.56744 2.50983,-8.51869 0.24155,-1.991 0.20409,-4.05029 -0.42074,-5.97194 -0.88414,-2.95562 -2.73717,-5.49257 -4.76133,-7.77313 -3.28331,-3.69073 -7.21552,-6.74036 -11.30905,-9.47833 -0.53601,-0.34855 -1.17925,-0.78331 -1.76424,-1.15158 -3.20489,-2.05046 -6.52403,-3.92388 -9.87696,-5.66928 -4.17611,-2.17236 -8.45339,-4.17905 -12.74852,-6.04576 -10.05047,-4.35413 -20.38116,-8.0534 -30.82674,-11.33857 -8.21064,-2.57088 -16.56584,-4.84422 -24.9729,-6.76919 -5.27478,-1.18836 -10.67982,-2.27379 -16.04085,-3.11515 -4.33392,-0.65993 -8.68506,-1.29147 -13.07331,-1.42471 -0.82653,-0.0367 -1.68547,-0.0745 -2.48031,-0.096 z m -18.21849,0.0517 c -1.31115,0.20417 -2.61601,0.40851 -3.92716,0.6127 -5.66322,0.87273 -11.31614,1.8317 -16.94142,2.92322 -9.77361,1.85963 -19.51679,3.90195 -29.14367,6.42224 -9.07087,2.36505 -18.04735,5.10445 -26.83315,8.37844 -9.03109,3.36126 -17.92334,7.35036 -26.38284,12.05461 -6.08094,3.37719 -11.92453,7.29389 -16.89713,12.18749 -3.03153,3.0384 -5.78319,6.50459 -7.26378,10.57824 -0.46475,1.24969 -0.72785,2.56964 -0.82677,3.89763 -0.0181,0.22103 -0.037,0.63148 -0.0443,0.93012 -0.0709,2.43684 0.30686,4.94422 1.51329,7.09399 1.43086,2.66039 3.60657,4.80906 5.78739,6.85777 1.48015,1.35455 3.1702,2.50406 5.07874,3.15944 1.46642,0.59868 3.0161,1.10701 4.62106,1.02608 2.01209,-0.0576 4.05822,-0.0894 5.99409,-0.70866 0.93415,-0.27345 1.77116,-0.55525 2.67962,-0.91535 2.63293,-1.02199 5.12763,-2.36777 7.47047,-3.94193 0.25202,-0.17102 0.65356,-0.44178 0.95964,-0.65699 0.68986,-0.48508 1.35181,-0.96496 1.99311,-1.45422 2.56225,-1.9446 4.97902,-4.06039 7.3745,-6.17126 12.7235,-11.49007 25.78091,-22.62013 39.37496,-33.07083 9.61034,-7.39055 19.48199,-14.46234 29.79328,-20.84644 3.81344,-2.32818 7.79575,-4.37204 11.76672,-6.41485 1.2834,-0.65321 2.56491,-1.29807 3.85334,-1.94144 z m -0.96703,30.06641 c -4.67985,2.16143 -9.16027,4.73585 -13.57528,7.38926 -7.75811,4.72332 -15.28948,9.81124 -22.57379,15.23621 -6.01775,4.50764 -11.93449,9.29987 -17.51721,14.38729 -5.87839,5.37673 -11.49873,11.08976 -16.31396,17.45077 -0.21698,0.28837 -0.53411,0.7291 -0.74557,1.01131 -2.35394,3.3056 -4.54677,6.79229 -5.90551,10.6373 -0.76636,2.19265 -1.13372,4.55409 -0.78986,6.86515 0.22201,1.68606 1.40287,3.00508 2.53937,4.17814 1.26764,1.25945 2.60453,2.64516 4.39222,3.10778 1.45745,0.30175 2.94426,-0.22753 4.22244,-0.90059 2.12666,-1.24273 4.00378,-2.87275 5.76525,-4.58415 0.77482,-0.76696 1.4741,-1.50426 2.18503,-2.30315 1.30094,-1.47608 2.59083,-3.02835 3.83858,-4.59153 4.76717,-5.98583 9.24523,-12.16828 13.59743,-18.46947 2.78777,-4.07172 5.53396,-8.17127 8.42273,-12.17272 4.98068,-6.89755 10.14934,-13.66602 15.65697,-20.15254 2.57975,-3.05157 5.25439,-6.02698 8.10531,-8.82873 2.65165,-2.6739 5.47659,-5.16043 8.19389,-7.76575 0.16652,-0.16339 0.33543,-0.33116 0.50196,-0.49458 z m 22.51475,1.38779 c 3.83066,4.50978 7.94643,8.7666 11.84792,13.21357 9.52058,10.89571 18.28255,22.4403 26.51571,34.33314 5.29145,7.76516 10.62821,15.51374 16.5502,22.8174 1.81269,2.19078 3.6238,4.40476 5.70617,6.34841 0.57392,0.44919 1.06292,1.10957 1.83073,1.21063 2.19273,0.27965 4.46974,-0.14966 6.43698,-1.15157 2.65315,-1.42924 4.83337,-3.88526 5.65455,-6.81348 0.59047,-1.99292 0.26305,-4.15942 -0.64963,-6.00147 -2.11283,-4.13795 -4.90832,-7.88039 -7.8543,-11.45668 -1.8381,-2.21521 -3.81241,-4.40447 -5.81696,-6.5182 -3.90277,-4.11455 -8.06055,-8.08312 -12.28345,-11.90698 -2.25501,-2.02398 -4.61699,-4.0816 -6.97586,-6.04576 -6.6963,-5.62534 -13.76231,-10.70851 -21.0236,-15.56839 -6.23859,-4.15412 -12.54941,-8.19671 -19.03788,-11.95127 -0.29971,-0.16792 -0.60106,-0.34148 -0.90058,-0.50935 z m 139.90882,51.20812 c -0.0113,0.13988 -0.022,0.27353 -0.0295,0.41338 -0.16857,1.6317 -0.11962,3.35568 0.65696,4.85729 1.69681,4.04058 3.57418,8.0125 5.62502,11.88483 2.26231,4.17868 4.87389,8.21441 7.64761,11.99555 1.8698,2.55536 3.85726,5.09667 6.1565,7.33021 1.68725,1.54347 3.55321,3.10639 5.80217,3.61712 1.08352,0.1719 2.07999,-0.38833 3.03394,-0.81938 1.55928,-0.7796 2.74896,-2.12479 3.5876,-3.65403 1.27635,-2.14864 2.47018,-4.46542 2.73131,-7.02017 0.048,-1.19868 -0.68814,-2.23557 -1.11469,-3.31447 -1.11171,-2.38427 -2.66566,-4.54229 -4.56937,-6.34104 -3.35146,-3.30899 -7.09647,-6.16314 -10.8071,-9.02804 -3.20772,-2.39755 -6.50369,-4.69403 -9.97291,-6.67322 -0.60639,-0.34178 -1.41453,-0.78373 -2.11858,-1.12943 -2.09918,-1.00165 -4.28613,-2.0698 -6.62894,-2.1186 z m -295.9692,3.73523 c -2.32263,0.0488 -4.48878,1.11696 -6.56988,2.11861 -0.69798,0.34569 -1.50267,0.78764 -2.10383,1.12942 -3.43934,1.97919 -6.70426,4.27567 -9.88435,6.67322 -3.67865,2.8649 -7.39591,5.71906 -10.71849,9.02805 -1.88731,1.79874 -3.43035,3.96414 -4.53247,6.34841 -0.42289,1.0789 -1.14749,2.11579 -1.0999,3.31447 0.25887,2.55476 1.4438,4.87154 2.70915,7.02017 0.83141,1.52924 2.01222,2.86705 3.55807,3.64665 0.94573,0.43105 1.93024,0.99866 3.00442,0.82677 2.22959,-0.51073 4.08515,-2.08103 5.75787,-3.62451 2.27943,-2.23354 4.24374,-4.76746 6.09743,-7.32282 2.74982,-3.78115 5.33838,-7.82426 7.5812,-12.00294 2.03317,-3.87233 3.8985,-7.84425 5.5807,-11.88483 0.76988,-1.50161 0.81674,-3.2182 0.64961,-4.8499 -0.007,-0.13985 -0.0182,-0.28089 -0.0295,-0.42077 z m 271.27681,21.88728 c -0.0189,0.0113 -0.0303,0.0389 -0.0443,0.096 -0.36889,1.4297 -0.24133,2.93779 -0.10337,4.39222 0.62615,5.18452 2.04797,10.22407 3.5433,15.21406 0.61962,2.04321 1.3132,4.17608 2.01528,6.17864 1.61639,4.55078 3.44383,9.05254 5.86121,13.24309 1.53725,2.613 3.3349,5.15117 5.72832,7.0497 1.12751,0.89589 2.60194,1.55444 4.06004,1.1811 1.93924,-0.47023 3.49357,-1.86138 4.80563,-3.2997 0.84616,-1.01955 1.75377,-2.08699 2.07428,-3.40305 0.0151,-1.10096 -0.4472,-2.14345 -0.7677,-3.18159 -0.40717,-1.1676 -0.89321,-2.37724 -1.35088,-3.48425 -0.60873,-1.44475 -1.25185,-2.86993 -1.93406,-4.28149 -1.87982,-3.88518 -3.90965,-7.76532 -6.22294,-11.3681 -0.8225,-1.29411 -1.72864,-2.61244 -2.58365,-3.80167 -2.92289,-3.98115 -6.09747,-7.81442 -9.81051,-11.08758 -1.56979,-1.33773 -3.19797,-2.70771 -5.15996,-3.4252 -0.0582,-0.0261 -0.0914,-0.0331 -0.1107,-0.0222 z m -246.79849,3.73524 c -0.0191,-0.011 -0.053,-0.004 -0.11073,0.0221 -1.94508,0.71749 -3.55938,2.08748 -5.11564,3.4252 -3.68105,3.27317 -6.82423,7.10643 -9.72194,11.08759 -0.84764,1.18922 -1.7461,2.50755 -2.56151,3.80166 -2.29337,3.60276 -4.30763,7.48294 -6.17126,11.3681 -0.67632,1.41158 -1.3158,2.83677 -1.91929,4.28149 -0.45371,1.10703 -0.93246,2.31664 -1.33612,3.48425 -0.31774,1.03812 -0.77545,2.08066 -0.76033,3.18159 0.31774,1.31607 1.21329,2.38353 2.05216,3.40305 1.30076,1.43834 2.84617,2.8295 4.7687,3.2997 1.44554,0.37335 2.90533,-0.2852 4.02312,-1.1811 2.3728,-1.89853 4.15267,-4.43672 5.67667,-7.0497 2.39656,-4.19054 4.21446,-8.69232 5.81692,-13.24309 0.69604,-2.00254 1.37884,-4.13547 1.99311,-6.17864 1.48245,-4.99001 2.89302,-10.02953 3.51378,-15.21406 0.13674,-1.45443 0.26236,-2.96252 -0.10335,-4.39222 -0.014,-0.0571 -0.0254,-0.0846 -0.0443,-0.096 z m 211.5869,9.43404 c -0.0673,0.12306 -0.13202,0.24608 -0.1993,0.3691 -0.83021,1.41479 -1.50107,2.99907 -1.41732,4.68749 -0.1319,4.38042 -0.0681,8.77298 0.19193,13.14714 0.32541,4.74063 1.0227,9.50101 1.97831,14.09201 0.64154,3.10072 1.39578,6.23397 2.56154,9.21997 0.8951,2.10425 1.94494,4.3013 3.77952,5.69881 0.91461,0.60581 2.05357,0.50592 3.10038,0.50935 1.74217,-0.0627 3.38612,-0.78703 4.78348,-1.8307 2.05255,-1.42574 4.09893,-3.03955 5.39614,-5.25591 0.54078,-1.07083 0.30236,-2.31821 0.3617,-3.47686 -0.0227,-2.63062 -0.54183,-5.24346 -1.52802,-7.66978 -1.67717,-4.401 -3.90187,-8.55094 -6.09006,-12.69683 -1.92438,-3.51204 -3.96828,-6.96934 -6.30413,-10.20915 -0.41001,-0.56251 -0.96439,-1.29796 -1.46162,-1.90452 -1.49469,-1.7821 -3.04101,-3.66402 -5.15255,-4.68012 z m -176.67798,3.73524 c -2.09335,1.0161 -3.62645,2.89799 -5.10826,4.68011 -0.49295,0.60654 -1.04038,1.34202 -1.44685,1.90452 -2.31573,3.23981 -4.34465,6.69714 -6.25245,10.20915 -2.16934,4.14591 -4.37567,8.29585 -6.03838,12.69684 -0.9777,2.4263 -1.49099,5.03915 -1.51329,7.66977 0.0589,1.15862 -0.1744,2.40602 0.36172,3.47687 1.28603,2.21635 3.30961,3.83019 5.34448,5.2559 1.38532,1.04368 3.01938,1.76797 4.74655,1.83071 1.03779,-0.003 2.16414,0.0965 3.07086,-0.50935 1.81878,-1.39752 2.8626,-3.59457 3.75,-5.69882 1.15571,-2.98601 1.90336,-6.11928 2.53936,-9.21997 0.94739,-4.59102 1.63358,-9.35139 1.9562,-14.09201 0.2578,-4.37416 0.3227,-8.76671 0.19193,-13.14714 0.083,-1.68838 -0.5795,-3.2727 -1.40255,-4.68749 -0.0667,-0.12302 -0.13261,-0.24603 -0.19932,-0.36909 z" />
    <path
       style="color:#000000;fill:#f300ff;fill-rule:evenodd;-inkscape-stroke:none"
       d="M 72.898211,-9.964516 H 261.87477 c -0.34396,-25.96827 -42.349,-68.03125 -88.77244,-68.03125 v 27.10156 h -9.82677 v -27.10156 c -43.01167,-0.36814 -90.377349,43.08217 -90.377349,68.03125 z"
       id="rect877"
       sodipodi:nodetypes="ccccccc" />
    <path
       style="color:#000000;fill:#f300ff;fill-rule:evenodd;-inkscape-stroke:none"
       d="m 420.79068,-10.350143 h 188.97656 c -0.34396,-25.96827 -42.52494,-68.03125 -88.94838,-68.03125 v 27.10156 h -9.82677 v -27.10156 c -43.01167,-0.36814 -90.20141,43.08217 -90.20141,68.03125 z"
       id="rect877-4"
       sodipodi:nodetypes="ccccccc" />
    <rect
       style="fill:#0000ff;fill-rule:evenodd"
       id="rect2350"
       width="7.5590553"
       height="29.831812"
       x="186.17149"
       y="-105.4985"
       transform="rotate(89.834111)" />
    <rect
       style="fill:#0000ff;fill-rule:evenodd"
       id="rect2350-7"
       width="7.5590553"
       height="29.831812"
       x="82.174591"
       y="27.824043"
       transform="rotate(-50.032995)" />
    <rect
       style="fill:#0000ff;fill-rule:evenodd"
       id="rect2350-7-5"
       width="7.5590553"
       height="29.831812"
       x="296.86703"
       y="292.03375"
       transform="rotate(-50.032995)" />
    <rect
       style="fill:#0000ff;fill-rule:evenodd"
       id="rect2350-7-1"
       width="7.5590553"
       height="29.831812"
       x="399.7847"
       y="-455.74591"
       transform="rotate(43.122668)" />
    <rect
       style="fill:#0000ff;fill-rule:evenodd"
       id="rect2350-7-1-0"
       width="7.5590553"
       height="29.831812"
       x="158.36818"
       y="-214.42474"
       transform="rotate(43.122668)" />
    <rect
       style="fill:#0000ff;fill-rule:evenodd"
       id="rect2350-5"
       width="7.5590553"
       height="29.831812"
       x="184.24249"
       y="-612.66766"
       transform="rotate(89.834111)" />
    <rect
       style="fill:#0000ff;fill-rule:evenodd"
       id="rect2350-5-5"
       width="7.5590553"
       height="29.831812"
       x="-350.00137"
       y="-277.78116"
       transform="rotate(-179.22446)" />
  </g>
</svg>
