<?xml version="1.0" encoding="UTF-8" standalone="no"?>
<!-- Created with Inkscape (http://www.inkscape.org/) -->

<svg
   width="210mm"
   height="297mm"
   viewBox="0 0 210 297"
   version="1.1"
   id="svg5"
   inkscape:version="1.1 (c4e8f9e, 2021-05-24)"
   sodipodi:docname="jy2021.svg"
   xmlns:inkscape="http://www.inkscape.org/namespaces/inkscape"
   xmlns:sodipodi="http://sodipodi.sourceforge.net/DTD/sodipodi-0.dtd"
   xmlns="http://www.w3.org/2000/svg"
   xmlns:svg="http://www.w3.org/2000/svg">
  <sodipodi:namedview
     id="namedview7"
     pagecolor="#ffffff"
     bordercolor="#666666"
     borderopacity="1.0"
     inkscape:pageshadow="2"
     inkscape:pageopacity="0.0"
     inkscape:pagecheckerboard="0"
     inkscape:document-units="mm"
     showgrid="false"
     inkscape:zoom="2.80552"
     inkscape:cx="147.92267"
     inkscape:cy="109.96179"
     inkscape:window-width="1723"
     inkscape:window-height="1067"
     inkscape:window-x="69"
     inkscape:window-y="25"
     inkscape:window-maximized="1"
     inkscape:current-layer="layer1" />
  <defs
     id="defs2" />
  <g
     inkscape:label="Layer 1"
     inkscape:groupmode="layer"
     id="layer1">
    <path
       id="rect31-9-2"
       style="fill:#e5f8ad;fill-opacity:1;fill-rule:evenodd;stroke:#000000;stroke-width:0.100939;stroke-miterlimit:4;stroke-dasharray:none"
       d="M 43.31651,0.05048664 H 64.94953 V 21.683356 H 43.31651 Z" />
    <path
       style="fill:#000000;stroke-width:0.0282435"
       d="m 50.392908,19.987556 c -1.093423,-0.0023 -2.444598,-0.660963 -2.426543,-1.908366 0.129769,-1.128572 -0.483848,-2.003625 -1.184953,-2.785073 -1.95933,-3.085877 -1.701264,-7.3961327 0.67214,-10.1910307 0.681927,-0.8287462 1.521828,-1.5311129 2.472059,-2.0326199 -0.722005,0.6613516 -1.615925,1.220739 -2.134694,2.1037899 -0.592372,0.6870267 -0.885885,1.509773 -1.265662,2.3310305 -0.115872,0.5810697 -0.196077,1.6932543 -0.118721,2.6295392 0.08758,0.751135 0.297414,1.518598 0.462406,2.241903 0.432874,0.75417 0.584249,1.660033 1.214993,2.333784 0.62206,-0.316708 -0.157026,-1.588844 0.503411,-1.957003 -0.05501,1.139501 0.02555,2.303563 -0.447943,3.37403 -0.162446,0.930545 -0.212434,2.192349 0.675431,2.780594 0.827205,0.400859 1.458682,0.342971 2.337868,0.509468 0.584797,0.144309 1.945734,0.262259 1.557173,-0.628952 0.469811,-0.350028 0.415839,-0.801481 0.122959,-1.137731 0.384307,-0.470071 0.197494,-0.877999 -0.193377,-1.179858 0.436445,-0.555282 1.347377,-0.702824 2.027562,-0.961859 0.434211,-0.09141 1.62901,-0.431597 0.71834,-0.867513 -0.84937,0.121748 -1.712406,0.36259 -2.566447,0.542409 -0.906642,0.15731 -1.874108,0.45869 -2.780603,0.199686 -0.975763,-0.608122 -0.294449,-1.988229 -1.069667,-2.736363 1.023569,0.157918 0.833679,1.455769 1.011292,2.228894 0.656668,0.943203 2.089669,0.27536 3.044778,0.178759 0.943725,-0.146936 2.0424,-0.966477 2.937924,-0.304777 0.312152,1.143368 -1.411568,1.217112 -1.821865,2.048785 -0.691992,0.9981 0.715204,1.365708 1.411262,0.953303 1.233895,-0.2988 2.433685,-0.811911 3.426476,-1.606805 0.601689,-0.565274 1.286252,-1.17021 1.688385,-1.928435 0.485399,-0.797965 0.93037,-1.669153 1.132625,-2.587302 0.133338,-0.786667 0.364194,-1.560976 0.267066,-2.3721295 C 62.021061,8.2507823 62.033845,7.1242575 61.33398,6.3232138 61.049012,5.4451997 60.3059,4.6374509 59.610934,4.0278476 59.406258,3.7840019 58.250751,2.9547994 59.150302,3.4651435 c 2.939607,1.890433 4.394031,5.7000018 3.609254,9.0862335 -0.671418,3.261195 -3.387986,5.960603 -6.644165,6.64074 -0.933539,0.210048 -1.901784,0.270433 -2.853365,0.16577 -0.80844,0.621976 -1.894438,0.64672 -2.869118,0.629669 z m 0.451928,-0.689042 c 0.244637,-0.157756 0.03979,0.128197 0,0 z m 5.265883,-5.774924 c -1.373862,-0.574642 -2.915571,-0.849787 -4.389376,-0.544079 -0.343498,-0.635732 1.195665,-0.495 1.652362,-0.508741 1.019771,0.06754 2.018964,0.351989 2.960276,0.738445 0.272956,0.173045 0.04941,0.543442 -0.223262,0.314375 z m 0.143126,-3.8782979 c -0.988191,-0.5729716 -0.581,-2.4511262 0.600606,-2.4553233 1.280329,0.3575717 0.69955,2.8081218 -0.600606,2.4553233 z M 51.28264,9.1109946 c -1.171007,-0.4268723 -0.739662,-2.462287 0.458665,-2.5059871 1.226783,0.3559179 0.76463,2.5613661 -0.458665,2.5059871 z m 4.615964,-2.4908218 c 0.338176,-0.9890309 1.755039,-0.5921129 2.574939,-0.6083893 0.43691,-0.093515 1.42632,0.6676259 0.456826,0.5268653 -1.011892,-0.195343 -2.05971,0.2910314 -3.031765,0.081524 z M 48.980323,6.1308315 c 0.0037,-0.9686554 1.255196,-1.2891221 2.045268,-1.2749625 0.631801,-0.055942 1.818856,0.7038577 1.577414,1.1124138 C 51.695424,5.6503566 50.626296,5.0922416 49.75093,5.81284 49.526355,5.9635676 49.280023,6.2605787 48.980323,6.1308315 Z m 9.551736,-2.969354 c -0.451464,-0.2214527 0.419352,0.072269 0,0 z M 50.01285,3.0898246 c 0.08226,-0.1793828 0.206983,0.083171 0,0 z m 0.29532,-0.2319132 c 0.95174,-0.3918577 -0.45186,0.320878 0,0 z m 7.632479,-0.00841 c -0.489985,-0.1864863 -0.482554,-0.3272292 0.03321,-0.073636 0.275483,0.095159 0.149135,0.2128921 -0.03321,0.073636 z"
       id="path10901" />
    <path
       id="rect31-9"
       style="fill:#e5f8ad;fill-rule:evenodd;stroke:#000000;stroke-width:0.100939;stroke-miterlimit:4;stroke-dasharray:none"
       d="M 21.683491,21.683356 H 43.31651 v 21.63287 H 21.683491 Z" />
    <g
       aria-label="JY 2021"
       transform="matrix(0.91751653,0,0,1.0000925,-0.07131204,-0.07057452)"
       id="text2513"
       style="font-size:9.07849px;line-height:1.05;font-family:'Arial Black';-inkscape-font-specification:'Arial Black, ';text-align:center;text-anchor:middle;stroke-width:0.226963">
      <path
         d="m 32.910371,24.450237 h 2.012517 v 3.532987 q 0,1.112647 -0.199479,1.693351 -0.195045,0.580704 -0.793481,0.984094 -0.594003,0.40339 -1.524902,0.40339 -0.984095,0 -1.524903,-0.265971 -0.540809,-0.265972 -0.83781,-0.77575 -0.292569,-0.514212 -0.345763,-1.267797 l 1.919427,-0.261539 q 0.0044,0.429987 0.07536,0.638332 0.07092,0.208344 0.239374,0.336897 0.115254,0.08422 0.328031,0.08422 0.336897,0 0.492047,-0.24824 0.159583,-0.252673 0.159583,-0.846676 z"
         id="path6636" />
      <path
         d="m 35.614414,24.450237 h 2.229727 l 1.312125,2.194264 1.312126,-2.194264 h 2.216428 l -2.526728,3.776794 v 2.721774 h -2.012517 v -2.721774 z"
         id="path6638" />
      <path
         d="m 29.630057,40.481219 h -5.41695 q 0.09309,-0.802347 0.562972,-1.507171 0.474316,-0.709257 1.773143,-1.671187 0.793481,-0.58957 1.015124,-0.895437 0.221643,-0.305867 0.221643,-0.580704 0,-0.297002 -0.221643,-0.505346 -0.21721,-0.212777 -0.549674,-0.212777 -0.345763,0 -0.567406,0.21721 -0.21721,0.21721 -0.292568,0.766884 l -1.808606,-0.146284 q 0.106389,-0.762451 0.390092,-1.188006 0.283702,-0.429987 0.797914,-0.656062 0.518644,-0.230509 1.431813,-0.230509 0.953064,0 1.480574,0.21721 0.531942,0.21721 0.833377,0.669361 0.305867,0.447719 0.305867,1.006259 0,0.594003 -0.350196,1.134811 -0.345763,0.540809 -1.263364,1.188006 -0.545241,0.376792 -0.731421,0.52751 -0.181748,0.150717 -0.429987,0.394524 h 2.819296 z"
         id="path6640" />
      <path
         d="m 30.41024,37.205338 q 0,-1.852934 0.664929,-2.593221 0.669361,-0.740287 2.034681,-0.740287 0.656063,0 1.077184,0.164016 0.421121,0.159583 0.687093,0.421121 0.265971,0.257106 0.416688,0.545241 0.15515,0.283703 0.24824,0.664929 0.181747,0.726988 0.181747,1.516037 0,1.76871 -0.598435,2.588788 -0.598436,0.820079 -2.061279,0.820079 -0.820078,0 -1.325424,-0.261539 Q 31.230319,40.068964 30.90672,39.563618 30.671779,39.204557 30.538793,38.583957 30.41024,37.958924 30.41024,37.205338 Z m 1.790874,0.0044 q 0,1.2412 0.21721,1.697784 0.221643,0.452151 0.638332,0.452151 0.274837,0 0.474315,-0.190612 0.203912,-0.195046 0.297002,-0.611735 0.09752,-0.416688 0.09752,-1.298827 0,-1.294394 -0.221642,-1.737679 -0.21721,-0.447719 -0.656063,-0.447719 -0.447719,0 -0.647197,0.456584 -0.199479,0.452152 -0.199479,1.680053 z"
         id="path6642" />
      <path
         d="m 41.758353,40.481219 h -5.416951 q 0.09309,-0.802347 0.562973,-1.507171 0.474316,-0.709257 1.773143,-1.671187 0.793481,-0.58957 1.015124,-0.895437 0.221643,-0.305867 0.221643,-0.580704 0,-0.297002 -0.221643,-0.505346 -0.21721,-0.212777 -0.549674,-0.212777 -0.345763,0 -0.567406,0.21721 -0.21721,0.21721 -0.292568,0.766884 l -1.808606,-0.146284 q 0.106389,-0.762451 0.390092,-1.188006 0.283702,-0.429987 0.797914,-0.656062 0.518644,-0.230509 1.431812,-0.230509 0.953065,0 1.480574,0.21721 0.531943,0.21721 0.833378,0.669361 0.305867,0.447719 0.305867,1.006259 0,0.594003 -0.350196,1.134811 -0.345763,0.540809 -1.263364,1.188006 -0.545242,0.376792 -0.731421,0.52751 -0.181748,0.150717 -0.429988,0.394524 h 2.819297 z"
         id="path6644" />
      <path
         d="m 46.630063,33.87183 v 6.609389 h -1.826337 v -4.330901 q -0.443286,0.336897 -0.859974,0.545242 -0.412256,0.208344 -1.037289,0.398957 v -1.480574 q 0.922034,-0.297002 1.431813,-0.71369 0.509778,-0.416689 0.797914,-1.028423 z"
         id="path6646" />
    </g>
    <path
       id="rect31"
       style="fill:#e5f8ad;fill-rule:evenodd;stroke:#000000;stroke-width:0.100939;stroke-miterlimit:4;stroke-dasharray:none"
       d="M 0.05046992,0.05048708 H 21.683491 V 21.683356 H 0.05046992 Z" />
    <path
       id="rect31-8-9"
       style="fill:#e5f8ad;fill-rule:evenodd;stroke:#000000;stroke-width:0.100939;stroke-miterlimit:4;stroke-dasharray:none"
       d="M 0.05046971,43.316226 H 21.683491 V 64.949095 H 0.05046971 Z" />
    <path
       id="rect31-9-21"
       style="fill:#e5f8ad;fill-rule:evenodd;stroke:#000000;stroke-width:0.05051;stroke-miterlimit:4;stroke-dasharray:none"
       d="m 37.914011,0.03897549 h 5.414012 V 21.683356 h -5.414012 z" />
    <path
       id="rect31-9-21-8"
       style="fill:#e5f8ad;fill-rule:evenodd;stroke:#000000;stroke-width:0.05051;stroke-miterlimit:4;stroke-dasharray:none"
       d="m 32.500001,0.03897549 h 5.41401 V 21.683356 h -5.41401 z" />
    <path
       id="rect31-9-21-5"
       style="fill:#e5f8ad;fill-rule:evenodd;stroke:#000000;stroke-width:0.0504831;stroke-miterlimit:4;stroke-dasharray:none"
       d="m 27.091745,0.03897549 h 5.408256 V 21.683356 h -5.408256 z" />
    <path
       id="rect31-9-21-8-5"
       style="fill:#e5f8ad;fill-rule:evenodd;stroke:#000000;stroke-width:0.0504831;stroke-miterlimit:4;stroke-dasharray:none"
       d="m 21.683491,0.03897549 h 5.408254 V 21.683356 h -5.408254 z" />
    <path
       id="rect31-9-2-42"
       style="fill:#e5f8ad;fill-rule:evenodd;stroke:#000000;stroke-width:0.0504698;stroke-miterlimit:4;stroke-dasharray:none"
       d="m 43.31651,21.683356 h 21.63302 v 5.408218 H 43.31651 Z" />
    <path
       id="rect31-9-2-42-1"
       style="fill:#e5f8ad;fill-rule:evenodd;stroke:#000000;stroke-width:0.0504698;stroke-miterlimit:4;stroke-dasharray:none"
       d="M 43.31651,27.091574 H 64.94953 V 32.49979 H 43.31651 Z" />
    <path
       id="rect31-9-2-42-8"
       style="fill:#e5f8ad;fill-rule:evenodd;stroke:#000000;stroke-width:0.0504698;stroke-miterlimit:4;stroke-dasharray:none"
       d="m 43.31651,32.49979 h 21.63302 v 5.408218 H 43.31651 Z" />
    <path
       id="rect31-9-2-42-1-0"
       style="fill:#e5f8ad;fill-rule:evenodd;stroke:#000000;stroke-width:0.0504698;stroke-miterlimit:4;stroke-dasharray:none"
       d="m 43.31651,37.908008 h 21.63302 v 5.408218 H 43.31651 Z" />
    <path
       id="rect31-9-2-42-5"
       style="fill:#e5f8ad;fill-rule:evenodd;stroke:#000000;stroke-width:0.0504698;stroke-miterlimit:4;stroke-dasharray:none"
       d="M 21.683491,43.316226 H 43.31651 v 5.408217 H 21.683491 Z" />
    <path
       id="rect31-9-2-42-1-2"
       style="fill:#e5f8ad;fill-rule:evenodd;stroke:#000000;stroke-width:0.0504698;stroke-miterlimit:4;stroke-dasharray:none"
       d="M 21.683491,48.724443 H 43.31651 v 5.408216 H 21.683491 Z" />
    <path
       id="rect31-9-2-42-8-3"
       style="fill:#e5f8ad;fill-rule:evenodd;stroke:#000000;stroke-width:0.0504698;stroke-miterlimit:4;stroke-dasharray:none"
       d="M 21.683491,54.132659 H 43.31651 v 5.408217 H 21.683491 Z" />
    <path
       id="rect31-9-2-42-1-0-0"
       style="fill:#e5f8ad;fill-rule:evenodd;stroke:#000000;stroke-width:0.0504698;stroke-miterlimit:4;stroke-dasharray:none"
       d="M 21.683491,59.540876 H 43.31651 v 5.408219 H 21.683491 Z" />
    <path
       id="rect31-9-2-4"
       style="fill:#e5f8ad;fill-rule:evenodd;stroke:#000000;stroke-width:0.100939;stroke-miterlimit:4;stroke-dasharray:none"
       d="m 43.31651,43.316226 h 21.63302 v 21.63287 H 43.31651 Z" />
    <path
       id="rect31-9-2-42-7"
       style="fill:#e5f8ad;fill-rule:evenodd;stroke:#000000;stroke-width:0.0504698;stroke-miterlimit:4;stroke-dasharray:none"
       d="M 0.05046992,21.683356 H 21.683491 v 5.408218 H 0.05046992 Z" />
    <path
       id="rect31-9-2-42-1-6"
       style="fill:#e5f8ad;fill-rule:evenodd;stroke:#000000;stroke-width:0.0504698;stroke-miterlimit:4;stroke-dasharray:none"
       d="M 0.05046992,27.091574 H 21.683491 V 32.49979 H 0.05046992 Z" />
    <path
       id="rect31-9-2-42-8-2"
       style="fill:#e5f8ad;fill-rule:evenodd;stroke:#000000;stroke-width:0.0504698;stroke-miterlimit:4;stroke-dasharray:none"
       d="M 0.05046992,32.49979 H 21.683491 v 5.408218 H 0.05046992 Z" />
    <path
       id="rect31-9-2-42-1-0-5"
       style="fill:#e5f8ad;fill-rule:evenodd;stroke:#000000;stroke-width:0.0504698;stroke-miterlimit:4;stroke-dasharray:none"
       d="M 0.05046992,37.908008 H 21.683491 v 5.408218 H 0.05046992 Z" />
    <path
       style="fill:#000000;stroke-width:0.080299"
       d="M 15.157423,19.033522 C 13.918216,18.73562 12.632566,18.778814 11.371792,18.772391 10.211597,18.594475 10.06926,17.16754 10.513156,16.297284 10.626065,15.767696 9.9607448,15.281607 9.6805526,15.932599 8.7709046,16.633521 7.4221991,16.655183 6.4690387,16.027172 5.7213179,16.554858 4.7803092,16.876227 3.8751505,16.520317 2.9088145,16.228478 2.2231399,15.357899 2.0364491,14.38316 1.4963889,12.520992 1.4892642,10.530344 1.7155507,8.6227977 2.2071354,7.5462782 3.5167764,7.352004 4.3812378,6.6730019 5.2655265,6.0491853 6.116748,5.1845045 7.283709,5.2148706 8.4042017,5.3407677 9.3484231,4.8048268 10.269598,4.2628592 c 1.060843,-0.4465438 2.152643,0.076865 3.160998,0.4043044 1.149036,0.1405705 2.478896,-0.4828271 3.499569,0.3229285 1.042716,0.7598952 1.120962,2.1248933 1.366244,3.2799146 0.876286,1.6012805 1.703696,3.2881473 1.93455,5.1203043 0.134017,0.995766 -0.138264,2.006445 -0.745981,2.803138 -0.748002,1.063452 -1.50065,2.334718 -2.84672,2.684761 -0.480363,0.134683 -0.983477,0.177597 -1.480835,0.155312 z m 1.863024,-0.501183 c 1.270601,-0.622362 1.935106,-1.954212 2.6862,-3.07998 0.63214,-1.169175 0.411236,-2.558226 -0.03529,-3.748141 C 19.304756,10.518323 18.724316,9.4093369 18.133971,8.3295268 17.877764,7.2181307 17.843331,5.8971976 16.848962,5.1439688 15.890236,4.3448193 14.613994,4.8820127 13.515852,4.8786779 12.445501,4.5614933 11.245413,3.9033625 10.143379,4.4850091 9.4165085,5.0208701 8.5485017,5.4724679 7.618171,5.2916036 6.4664873,5.3138133 5.4767789,5.9860781 4.6421614,6.7170706 3.8020862,7.3359407 2.7005927,7.6161383 2.0178793,8.4302113 1.5888524,9.3324306 1.8042543,10.373787 1.7416646,11.339145 c 0.069696,1.435065 0.2801672,2.934317 1.015902,4.189794 0.7232876,0.949199 2.2435625,1.31261 3.2192863,0.538278 1.0012863,-0.47241 2.0667797,0.747478 3.0759155,0.03736 0.4661757,-0.619114 1.6597136,-1.056078 1.6256466,0.128101 -0.234466,0.862496 -0.453856,2.323494 0.850338,2.35067 1.087078,0.03776 2.181079,-0.0014 3.259693,0.187085 0.746655,0.08873 1.543188,0.112108 2.232001,-0.238091 z"
       id="path11954" />
    <path
       style="fill:#000000;stroke-width:0.080299"
       d="m 14.595292,18.793886 c -1.192746,-0.248296 -2.431381,0.0087 -3.619015,-0.27884 C 10.24382,18.050273 10.348303,16.977916 10.667396,16.289352 10.839114,15.877283 10.026542,14.980719 9.7370561,15.705507 8.868292,16.535931 7.4856082,16.479709 6.4912022,15.915093 5.8566454,16.155029 5.086482,16.755238 4.2772064,16.476539 3.1142724,16.305249 2.2640857,15.257868 2.0948582,14.131512 1.7142847,12.699448 1.7203004,11.205311 1.7249003,9.7346485 1.7970109,11.225267 1.812328,12.752225 2.3403897,14.1683 c 0.197874,0.868581 0.8922144,1.559614 1.7176762,1.839398 0.6819442,0.05256 1.2502499,-0.632372 0.970004,-1.289389 C 4.9294346,13.031233 4.6136984,11.364361 4.5211284,9.6764651 4.5346701,9.3072194 4.8063619,8.013944 5.0089528,9.0266425 5.2386765,10.640541 4.8285483,12.401211 5.640329,13.900854 c 0.3155496,0.831167 0.8684066,1.786191 1.8734433,1.808804 1.0287938,0.04334 1.4036477,-1.016665 1.51848,-1.852611 0.2982579,-1.251282 0.058165,-2.551529 0.019576,-3.820278 -0.039791,-1.0764522 -0.1279644,-2.2069293 0.2319114,-3.2397876 0.331045,0.1985027 0.1286978,1.2522917 0.2140883,1.7815031 0.034938,1.7613615 -0.033681,3.5808935 0.597015,5.2577795 0.04507,0.869232 0.917267,1.600372 1.749605,1.669156 1.02882,-0.03726 1.633027,-1.057452 1.694928,-1.99233 0.388227,-2.117382 0.117555,-4.2729166 -0.045,-6.3983247 -1.46e-4,-0.7049247 0.543709,-0.4060619 0.470561,0.1205277 0.209624,1.3502982 -0.05222,2.7182212 0.08347,4.075135 0.05855,1.093385 -0.01951,2.2865 0.555701,3.261228 0.604963,0.877305 1.918654,0.605595 2.56127,-0.07921 0.798291,-0.779987 0.843822,-1.956895 1.131593,-2.969824 -0.0073,1.225466 -0.239885,2.461718 -0.793449,3.560576 -0.14581,0.589418 -0.175564,1.610819 -1.052467,1.295576 -1.247151,-0.13414 -2.556447,-0.483367 -3.765317,0.04311 -0.697533,0.233712 -1.738063,0.511374 -1.766714,1.405981 0.05986,0.820605 1.082198,0.439687 1.621399,0.499979 0.87183,-0.0632 1.745872,-0.0017 2.598683,0.178572 0.873951,0.05904 1.79186,-0.236495 2.403457,-0.877788 0.710516,-0.43977 1.05266,-1.258942 1.615568,-1.851746 0.40176,-0.392774 0.799409,-1.480478 0.922002,-1.595779 0.07643,1.12423 -0.811167,1.981843 -1.364378,2.870361 -0.641184,0.9816 -1.650396,1.799299 -2.86656,1.84728 -0.420004,0.03313 -0.845013,-0.004 -1.253898,-0.104859 z M 17.853963,7.0782672 c 0.08044,-0.2930032 0.04343,0.3612192 0,0 z"
       id="path11790" />
    <path
       style="fill:#000000;stroke-width:0.037756"
       d="M 10.283708,63.010146 C 6.3985175,62.751326 2.9007047,59.703753 2.143013,55.87887 1.5172418,52.959253 2.4123231,49.705073 4.5864923,47.629884 4.2642417,48.05075 3.4977807,48.985422 3.1726616,49.714979 c -0.8211897,1.590492 -1.0740454,3.455897 -0.789695,5.21457 0.250333,1.165114 0.5869612,2.354262 1.3676652,3.282412 0.3054534,0.730235 1.1135478,1.006609 1.5192279,1.650014 0.5714928,0.62737 0.7438226,0.553976 1.2890493,1.079873 0.7260022,0.229998 0.8437784,0.437082 1.4796028,0.671796 0.4853852,0.03077 -0.2044439,0.09979 0.4124389,0.166166 0.5120289,0.07818 1.1981831,0.374924 1.5935613,0.373975 -0.5443929,-0.152198 0.762666,-0.0734 0.941267,0.05176 0.29059,0.05924 1.39981,-0.06832 0.532471,-0.08409 0.847094,0.02165 1.590419,-0.263563 2.381991,-0.520067 0.761027,-0.283879 1.648786,-0.769159 2.072855,-1.154028 0.712322,-0.563453 0.950375,-0.712058 1.493714,-1.428252 0.6077,-0.517123 1.09743,-1.234709 1.419097,-1.979394 1.503419,-2.852194 0.881416,-6.530126 -1.148291,-8.965577 -0.342658,-0.279418 -1.227837,-1.357942 -0.366983,-0.512192 2.881812,2.737713 3.524247,7.461216 1.516893,10.886002 -1.682962,3.001515 -5.167916,4.873362 -8.603818,4.562204 z m 0.113275,-0.842989 c -0.156192,-0.164754 -0.204785,0.161902 0,0 z m 5.729061,-1.683959 c -0.124712,-0.06039 -0.06811,0.07635 0,0 z m -5.823457,0.493459 C 7.7025711,60.739183 5.3983367,58.661056 4.8768944,56.108562 4.7324292,54.834124 6.2422932,55.687475 6.9120057,55.740345 c 2.9501981,0.641947 6.0428293,0.592694 8.9620583,-0.18732 0.616469,-0.280886 1.550679,-0.249655 1.246968,0.662544 -0.479716,1.82959 -1.759687,3.443434 -3.492099,4.232254 -1.027996,0.475142 -2.202655,0.668186 -3.326346,0.528834 z m 2.001199,-2.774444 c 1.325195,-0.122395 2.643634,-0.339981 3.928557,-0.689386 0.342428,-0.58159 0.904759,-2.08311 -0.328931,-1.462833 -2.905776,0.715867 -5.9693171,0.852347 -8.8992352,0.193337 -0.5687824,0.0068 -2.0872963,-0.851945 -1.623418,0.244188 0.057074,1.287313 1.4227747,1.278861 2.3712126,1.454081 1.4990699,0.264873 3.0317936,0.40711 4.5518146,0.260613 z m -5.9673899,2.527804 c -0.056117,-0.202723 0.2024744,0.186657 0,0 z m 1.4955908,-7.349418 c -1.0298085,-0.509073 -0.870605,-2.48047 0.3750059,-2.558163 1.4623289,0.0743 1.3112407,2.814529 -0.1943645,2.610659 z m 5.6045541,-0.0063 c -0.97679,-0.514598 -0.871347,-2.353764 0.274586,-2.562939 1.099891,0.01119 1.487821,1.512278 0.823435,2.25897 -0.249613,0.328615 -0.713488,0.491558 -1.098021,0.303969 z M 4.7453308,47.387894 c 0.047256,-0.137903 0.7402899,-0.643363 0.7473847,-0.598972 0.0064,0.04005 -0.6660913,0.625923 -0.7473847,0.598972 z m 2.9342336,-1.871837 c 0.064857,-0.04687 1.0334512,-0.333842 1.0290095,-0.322595 -0.00997,0.0252 -1.081449,0.414802 -1.0290095,0.322595 z m 9.0524886,1.471369 c -0.3241,-0.287733 -0.833943,-0.691747 -0.372949,-0.382098 0.05138,-0.0028 0.533187,0.557625 0.372949,0.382098 z M 5.8184203,46.534265 c 0.035738,-0.02582 1.36178,-0.820738 1.3645616,-0.832633 0.032104,-0.137291 -1.4418366,0.871727 -1.3645616,0.832633 z m 8.1702527,-1.149924 c -0.627678,-0.35492 1.948902,0.849453 1.96985,0.998706 -0.03434,-0.01982 -1.935538,-0.978888 -1.96985,-0.998706 z"
       id="path12474"
       sodipodi:nodetypes="scccccccccccccccccccsscccccccccccccccccccccccccccccsccscccccscccc" />
    <path
       style="fill:#000000;stroke-width:0.0331603"
       d="m 46.370299,60.426427 c -0.228184,-0.620813 0.115457,-1.391539 0.123881,-2.062487 0.0763,-0.572217 0.152576,-1.144433 0.228865,-1.716651 -0.625508,-0.403585 -0.60523,-1.399624 0.02699,-1.785809 0.127466,-0.616568 0.162893,-1.308363 0.422413,-1.911039 0.08308,-0.389626 0.719455,-0.914753 -0.04876,-0.925028 -0.780771,-0.272401 -1.60587,-0.44396 -2.357184,-0.782107 -0.134783,-0.758864 1.26626,-0.637284 1.77936,-0.967768 2.514842,-0.783884 5.021948,-1.593626 7.546004,-2.347278 3.057525,0.929276 6.108998,1.882707 9.149826,2.864596 0.766105,0.576722 -0.762708,0.732815 -1.145679,0.912736 -2.666412,0.832699 -5.325693,1.68939 -8.002042,2.489545 -1.812866,-0.532244 -3.607917,-1.123936 -5.410946,-1.688695 -0.59177,0.599246 -0.778946,1.479359 -0.840819,2.290842 0.49252,0.392966 0.717069,1.238516 0.179017,1.714263 -0.27552,0.194638 -0.03993,0.550916 -0.05416,0.828192 0.116665,0.987375 0.313425,1.973992 0.350284,2.963927 -0.492346,0.332691 -1.348562,0.09527 -1.947048,0.122761 z m 6.839369,-2.073889 c -1.411788,-0.147901 -2.954771,-0.353001 -4.048609,-1.339908 -0.5612,-0.674069 -0.133136,-1.632592 -0.197163,-2.426387 0.0029,-0.49858 -0.02553,-1.144694 0.620838,-0.701067 1.445308,0.453792 2.889824,0.911077 4.34308,1.338701 0.790569,-0.0044 1.52546,-0.402874 2.287843,-0.589142 0.984105,-0.308221 1.965879,-0.624027 2.952023,-0.925653 0.04703,0.933329 0.13738,1.867309 0.13039,2.801635 -0.338651,0.954788 -1.451796,1.257718 -2.327155,1.518867 -1.225139,0.342712 -2.50022,0.342579 -3.761247,0.322954 z"
       id="path13747" />
  </g>
</svg>
